<?xml version="1.0" encoding="UTF-8" standalone="no"?><!DOCTYPE svg PUBLIC "-//W3C//DTD SVG 1.1//EN" "http://www.w3.org/Graphics/SVG/1.1/DTD/svg11.dtd"><svg width="100%" height="100%" viewBox="0 0 95 105" version="1.1" xmlns="http://www.w3.org/2000/svg" xmlns:xlink="http://www.w3.org/1999/xlink" xml:space="preserve" xmlns:serif="http://www.serif.com/" style="fill-rule:evenodd;clip-rule:evenodd;stroke-linejoin:round;stroke-miterlimit:2;"><path d="M31.668,68.199c2.366,14.114 10.445,26.473 21.881,34.423c-3.646,1.032 -7.493,1.584 -11.469,1.584c-23.225,0 -42.08,-18.855 -42.08,-42.08l0,-60.403l28.969,-0c0.542,0.392 1.136,0.815 1.845,1.275c3.229,2.1 6.241,4.58 8.976,7.42c1.419,1.472 2.738,3.014 3.956,4.618l-4.954,0l-3.026,4.289l-7.016,-0l-3.025,-4.289l-6.577,0l0,13.237l8.076,12.218l-1.029,7.547l8.56,-0l1.029,-7.547l-0,-2.526l-6.992,-10.578l21.857,-0c0.602,1.558 1.127,3.147 1.573,4.761l-3.845,5.817l-0,2.526l1.029,7.547l4.616,-0l-0.108,5.113c-0.009,0.471 -0.009,0.871 -0.027,1.448l-3.484,0l-5.323,7.895c-1.628,-0.062 -3.557,-0.136 -3.557,-0.136c-0.696,-0.026 -1.597,-0.117 -2.724,-0.282l-5.042,-7.477l-8.349,0l-5.031,32.758l8.349,0l2.942,-19.158Z" style="fill:#6c3ec6;"/><path d="M33.059,59.611l4.162,4.434c9.369,10.552 22.29,16.846 36.376,17.724c0.748,0.045 1.49,0.077 2.232,0.092c3.315,0.07 6.597,-0.167 9.808,-0.698c-7.001,10.049 -17.468,17.474 -29.633,20.572c-13.864,-9.033 -22.936,-24.677 -22.945,-42.124Zm61.046,-16.919c0.572,3.262 0.839,6.624 0.768,10.059c-0.194,9.179 -2.77,17.747 -7.127,25.128c-3.912,0.857 -7.906,1.24 -11.884,1.156c-12.556,-0.264 -24.987,-5.181 -34.42,-14.572l6.407,0.245c0.694,0.041 1.388,0.069 2.079,0.084c13.342,0.28 26.115,-4.392 36.176,-13.273c3.024,-2.67 5.697,-5.631 8.001,-8.827Zm-23.182,-34.644c10.954,6.973 19.082,17.952 22.364,30.829c-9.027,14.001 -24.774,23.163 -42.33,23.144l4.978,-4.772l-0,-0.019l0.018,0.017c10.135,-9.82 15.861,-23.001 16.12,-37.115c0.076,-4.11 -0.315,-8.158 -1.15,-12.084Zm-26.62,-8.036c8.408,0.176 16.302,2.354 23.244,6.064c4.322,16.197 0.443,34.128 -11.527,47.119l0.138,-6.573l-0.017,-0.022l0.01,0c0.224,-14.11 -5.049,-27.478 -14.844,-37.643c-2.848,-2.957 -5.983,-5.538 -9.346,-7.724c3.966,-0.882 8.099,-1.311 12.342,-1.221Z" style="fill:#b4a0ff;"/></svg>