<?xml version="1.0" encoding="UTF-8" standalone="no"?><!DOCTYPE svg PUBLIC "-//W3C//DTD SVG 1.1//EN" "http://www.w3.org/Graphics/SVG/1.1/DTD/svg11.dtd"><svg width="100%" height="100%" viewBox="0 0 2250 2250" version="1.1" xmlns="http://www.w3.org/2000/svg" xmlns:xlink="http://www.w3.org/1999/xlink" xml:space="preserve" xmlns:serif="http://www.serif.com/" style="fill-rule:evenodd;clip-rule:evenodd;stroke-linejoin:round;stroke-miterlimit:2;"><path d="M784.416,1472.55c51.088,304.741 225.527,571.593 472.45,743.24c-78.731,22.28 -161.802,34.213 -247.646,34.213c-501.46,0 -908.578,-407.119 -908.578,-908.579l-0,-1304.23l625.494,0c11.692,8.478 24.529,17.599 39.838,27.543c69.711,45.343 134.742,98.892 193.805,160.206c30.637,31.782 59.124,65.081 85.422,99.715l-106.978,0l-65.332,92.594l-151.476,-0l-65.332,-92.594l-141.995,0l0,285.797l174.359,263.819l-22.219,162.947l184.826,0l22.219,-162.947l-0,-54.544l-150.954,-228.4l471.928,-0c12.998,33.65 24.328,67.943 33.951,102.799l-83.01,125.601l-0,54.544l22.219,162.947l99.665,0l-2.33,110.414c-0.201,10.165 -0.201,18.804 -0.583,31.259l-75.236,0l-114.933,170.462c-35.137,-1.346 -76.783,-2.933 -76.783,-2.933c-15.048,-0.563 -34.495,-2.532 -58.823,-6.088l-108.867,-161.441l-54.222,0l-11.632,-12.375c0,4.118 0.02,8.257 0.061,12.375l-114.472,0l-108.645,707.3l180.285,-0l63.524,-413.648Z" style="fill:#6c3ec6;"/><path d="M814.45,1287.1l89.862,95.747c202.283,227.838 481.29,363.745 785.428,382.69c16.152,0.984 32.164,1.667 48.175,1.989c71.58,1.506 142.457,-3.596 211.786,-15.068c-151.175,216.97 -377.164,377.286 -639.838,444.185c-299.337,-195.032 -495.232,-532.821 -495.413,-909.543Zm1318.09,-365.292c12.355,70.414 18.121,143.019 16.574,217.19c-4.178,198.185 -59.807,383.172 -153.867,542.544c-84.478,18.502 -170.723,26.779 -256.606,24.971c-271.111,-5.705 -539.51,-111.88 -743.18,-314.645l138.338,5.303c14.967,0.884 29.954,1.487 44.88,1.808c288.067,6.047 563.859,-94.823 781.109,-286.6c65.292,-57.637 123.01,-121.583 172.752,-190.571Zm-500.536,-748.042c236.517,150.573 412.001,387.632 482.877,665.654c-194.91,302.31 -534.929,500.134 -913.983,499.732l107.481,-103.04l-0,-0.402l0.381,0.362c218.838,-212.048 342.47,-496.639 348.075,-801.38c1.627,-88.757 -6.81,-176.147 -24.831,-260.926Zm-574.787,-173.515c181.551,3.817 351.992,50.827 501.882,130.945c93.316,349.722 9.562,736.892 -248.892,1017.38l2.993,-141.934l-0.382,-0.462l0.221,-0c4.842,-304.661 -109.007,-593.311 -320.511,-812.791c-61.475,-63.845 -129.177,-119.574 -201.782,-166.765c85.623,-19.045 174.861,-28.306 266.471,-26.378Z" style="fill:#b4a0ff;"/></svg>