<?xml version="1.0" encoding="UTF-8" standalone="no"?><!DOCTYPE svg PUBLIC "-//W3C//DTD SVG 1.1//EN" "http://www.w3.org/Graphics/SVG/1.1/DTD/svg11.dtd"><svg width="100%" height="30px" viewBox="0 0 823 105" version="1.1" xmlns="http://www.w3.org/2000/svg" xmlns:xlink="http://www.w3.org/1999/xlink" xml:space="preserve" xmlns:serif="http://www.serif.com/" style="fill-rule:evenodd;clip-rule:evenodd;stroke-linejoin:round;stroke-miterlimit:2;"><path d="M0,61.419l0,-61.419l85.575,0l-0,61.419c-0,23.615 -19.172,42.787 -42.788,42.787c-23.615,0 -42.787,-19.172 -42.787,-42.787Zm27.681,-21.997l-1.047,7.672l8.703,-0l1.047,-7.672l0,-2.569l-7.109,-10.756l27.025,-0l-7.109,10.756l-0,2.569l1.046,7.672l8.704,-0l-1.047,-7.672l8.212,-12.425l0,-13.46l-6.687,0l-3.078,4.363l-7.132,-0l-3.078,-4.363l-6.687,0l-3.075,4.363l-7.135,-0l-3.078,-4.363l-6.687,0l-0,13.46l8.212,12.425Zm14.785,39.675l0.643,-0l9.9,-13.878l3.357,21.856l8.49,0l-5.115,-33.309l-8.491,-0l-8.463,12.55l-8.462,-12.55l-8.491,-0l-5.115,33.309l8.49,0l3.357,-21.856l9.9,13.878Zm73.243,25.109l0,-104.206l6.706,0l0,104.206l-6.706,0Z" style="fill:#ce0e6a;"/><path d="M156.853,41.894l6.783,-0l0,-41.892l-6.783,-0l0,41.892Zm15.453,-16.141l0,-25.753l6.781,0l0,25.691c0,3.64 0.86,6.406 2.575,8.29c1.76,1.841 4.313,2.763 7.663,2.763c3.434,-0 6.009,-0.922 7.725,-2.763c1.719,-1.884 2.575,-4.65 2.575,-8.29l-0,-25.691l6.784,0l0,25.753c0,3.641 -0.672,6.741 -2.009,9.294c-1.341,2.512 -3.288,4.459 -5.841,5.841c-2.512,1.34 -5.59,2.009 -9.234,2.009c-3.559,-0 -6.616,-0.669 -9.169,-2.009c-2.512,-1.382 -4.459,-3.329 -5.84,-5.841c-1.341,-2.553 -2.01,-5.653 -2.01,-9.294Zm54.263,-19.784l-14.635,-0l0,-5.969l35.991,0l-0,5.969l-14.634,-0l-0,35.925l-6.722,-0l-0,-35.925Zm38.69,-5.969l6.782,-0l-0,35.928l21.418,0l0,5.966l-28.2,-0l0,-41.894Zm52.96,38.147c-0.791,1.212 -1.866,2.209 -3.219,2.994c-1.884,1.087 -4.081,1.631 -6.594,1.631c-3.015,-0 -5.462,-0.838 -7.347,-2.513c-1.884,-1.675 -2.828,-3.956 -2.828,-6.843c0,-3.141 1.153,-5.613 3.457,-7.413c2.299,-1.8 5.631,-2.7 9.984,-2.7c1.34,0 2.828,0.103 4.459,0.313c0.613,0.062 1.219,0.137 1.822,0.228l0,-1.106c0,-1.969 -0.587,-3.413 -1.759,-4.335c-1.172,-0.962 -2.972,-1.444 -5.4,-1.444c-1.635,0 -3.163,0.21 -4.585,0.628c-1.425,0.419 -2.722,1.11 -3.893,2.072l-2.766,-4.271c3.266,-2.429 7.181,-3.641 11.747,-3.641c4.059,-0 7.2,0.962 9.419,2.887c2.218,1.885 3.328,4.522 3.328,7.916l-0,19.344l-5.588,-0l-0.237,-3.747Zm-0.266,-10.009c-0.428,-0.066 -0.866,-0.129 -1.319,-0.188c-1.634,-0.209 -3.056,-0.313 -4.272,-0.313c-2.593,0 -4.584,0.46 -5.965,1.382c-1.341,0.922 -2.01,2.281 -2.01,4.081c0,1.55 0.482,2.744 1.444,3.581c1.006,0.838 2.388,1.256 4.144,1.256c1.509,0 2.869,-0.293 4.084,-0.881c1.213,-0.628 2.157,-1.422 2.825,-2.384c0.713,-1.006 1.069,-2.094 1.069,-3.269l0,-3.265Zm24.741,6.731l8.609,-22.182l6.784,0l-12.562,29.207l-6.094,-0l-12.559,-29.207l7.097,0l8.725,22.182Zm37.012,3.278c-0.79,1.212 -1.865,2.209 -3.219,2.994c-1.884,1.087 -4.081,1.631 -6.593,1.631c-3.016,-0 -5.463,-0.838 -7.347,-2.513c-1.885,-1.675 -2.828,-3.956 -2.828,-6.843c-0,-3.141 1.153,-5.613 3.456,-7.413c2.3,-1.8 5.631,-2.7 9.984,-2.7c1.341,0 2.828,0.103 4.46,0.313c0.612,0.062 1.218,0.137 1.822,0.228l-0,-1.106c-0,-1.969 -0.588,-3.413 -1.76,-4.335c-1.172,-0.962 -2.972,-1.444 -5.4,-1.444c-1.634,0 -3.162,0.21 -4.584,0.628c-1.425,0.419 -2.722,1.11 -3.894,2.072l-2.766,-4.271c3.266,-2.429 7.182,-3.641 11.747,-3.641c4.06,-0 7.2,0.962 9.419,2.887c2.219,1.885 3.328,4.522 3.328,7.916l0,19.344l-5.587,-0l-0.238,-3.747Zm-0.265,-10.009c-0.428,-0.066 -0.866,-0.129 -1.319,-0.188c-1.635,-0.209 -3.056,-0.313 -4.272,-0.313c-2.594,0 -4.584,0.46 -5.966,1.382c-1.34,0.922 -2.009,2.281 -2.009,4.081c0,1.55 0.481,2.744 1.444,3.581c1.006,0.838 2.387,1.256 4.147,1.256c1.506,0 2.865,-0.293 4.081,-0.881c1.212,-0.628 2.156,-1.422 2.825,-2.384c0.712,-1.006 1.069,-2.094 1.069,-3.269l-0,-3.265Zm14.131,13.756l6.343,-0l0,-41.892l-6.343,-0l-0,41.892Zm-237.697,19.131l2.741,-0l-0,14.619l8.643,-0l0,2.428l-11.384,-0l-0,-17.047Zm15.641,11.884c0.05,0.585 0.197,1.104 0.434,1.56c0.322,0.578 0.778,1.022 1.369,1.328c0.593,0.306 1.293,0.459 2.106,0.459c0.675,0 1.325,-0.118 1.953,-0.356c0.625,-0.238 1.2,-0.597 1.722,-1.075l1.269,1.613c-0.61,0.646 -1.36,1.14 -2.257,1.481c-0.878,0.34 -1.825,0.512 -2.84,0.512c-1.25,0 -2.35,-0.256 -3.297,-0.769c-0.944,-0.528 -1.688,-1.259 -2.231,-2.196c-0.522,-0.957 -0.785,-2.063 -0.785,-3.322c0,-1.228 0.253,-2.319 0.76,-3.272c0.509,-0.956 1.2,-1.706 2.081,-2.25c0.894,-0.547 1.919,-0.819 3.066,-0.819c1.168,0 2.181,0.281 3.043,0.844c0.878,0.544 1.563,1.322 2.053,2.325c0.491,0.991 0.735,2.141 0.735,3.453l-0,0.484l-9.181,0Zm0.009,-1.815l6.634,-0c-0.05,-0.516 -0.178,-0.975 -0.378,-1.382c-0.253,-0.543 -0.625,-0.962 -1.115,-1.249c-0.472,-0.291 -1.047,-0.435 -1.722,-0.435c-0.694,0 -1.303,0.153 -1.825,0.46c-0.525,0.306 -0.931,0.731 -1.219,1.278c-0.194,0.393 -0.319,0.837 -0.375,1.328Zm19.322,-5.769l-0.541,12.747l-2.559,-0l0.784,-17.047l2.588,-0l5.006,8.684l5.009,-8.684l2.61,-0l0.787,17.047l-2.687,-0l-0.522,-12.866l-4.575,7.96l-1.394,-0l-4.506,-7.841Zm24.262,11.222c-0.318,0.494 -0.753,0.9 -1.3,1.219c-0.759,0.443 -1.647,0.665 -2.662,0.665c-1.216,0 -2.203,-0.34 -2.966,-1.025c-0.759,-0.681 -1.14,-1.609 -1.14,-2.784c-0,-1.278 0.465,-2.284 1.393,-3.016c0.932,-0.734 2.275,-1.1 4.032,-1.1c0.54,0 1.14,0.044 1.8,0.128c0.25,0.025 0.493,0.057 0.737,0.091l0,-0.45c0,-0.8 -0.237,-1.388 -0.712,-1.762c-0.472,-0.391 -1.2,-0.588 -2.179,-0.588c-0.659,-0 -1.278,0.084 -1.853,0.256c-0.572,0.169 -1.097,0.45 -1.572,0.844l-1.115,-1.741c1.319,-0.987 2.9,-1.481 4.744,-1.481c1.637,0 2.906,0.391 3.803,1.175c0.894,0.769 1.343,1.841 1.343,3.222l0,7.872l-2.256,-0l-0.097,-1.525Zm-0.106,-4.072c-0.172,-0.028 -0.35,-0.053 -0.534,-0.078c-0.66,-0.084 -1.235,-0.128 -1.722,-0.128c-1.05,-0 -1.853,0.187 -2.41,0.562c-0.54,0.375 -0.812,0.931 -0.812,1.663c0,0.631 0.194,1.115 0.584,1.456c0.407,0.341 0.963,0.513 1.672,0.513c0.61,-0 1.16,-0.119 1.65,-0.36c0.488,-0.253 0.869,-0.578 1.141,-0.969c0.287,-0.409 0.431,-0.853 0.431,-1.331l0,-1.328Zm7.938,-4.569c0.334,-0.55 0.781,-1.006 1.34,-1.362c0.778,-0.494 1.681,-0.741 2.713,-0.741c1.387,0 2.468,0.444 3.247,1.328c0.778,0.869 1.165,2.088 1.165,3.656l0,7.285l-2.562,-0l-0,-6.925c-0,-1.006 -0.228,-1.766 -0.685,-2.275c-0.437,-0.528 -1.081,-0.794 -1.925,-0.794c-0.643,0 -1.209,0.163 -1.7,0.485c-0.471,0.309 -0.843,0.75 -1.115,1.331c-0.269,0.562 -0.407,1.244 -0.407,2.044l0,6.134l-2.559,-0l0,-11.884l2.384,-0l0.104,1.718Zm18.328,6.919c-0,-0.441 -0.194,-0.791 -0.585,-1.047c-0.371,-0.256 -1.031,-0.478 -1.975,-0.665l-0.837,-0.154c-1.219,-0.256 -2.131,-0.672 -2.738,-1.253c-0.593,-0.593 -0.887,-1.328 -0.887,-2.197c-0,-1.125 0.437,-2.018 1.315,-2.684c0.897,-0.681 2.082,-1.022 3.55,-1.022c1.741,0 3.197,0.503 4.363,1.509l-1.191,1.738c-0.475,-0.394 -0.99,-0.681 -1.546,-0.869c-0.541,-0.206 -1.126,-0.306 -1.751,-0.306c-0.743,0 -1.309,0.125 -1.7,0.381c-0.371,0.241 -0.556,0.588 -0.556,1.05c0,0.425 0.169,0.757 0.506,0.997c0.357,0.222 0.963,0.416 1.826,0.588l0.862,0.178c1.353,0.256 2.331,0.681 2.941,1.278c0.625,0.578 0.937,1.328 0.937,2.25c0,0.815 -0.209,1.516 -0.634,2.094c-0.403,0.562 -0.988,0.997 -1.747,1.306c-0.763,0.287 -1.656,0.434 -2.688,0.434c-1.05,0 -2.012,-0.153 -2.89,-0.462c-0.863,-0.307 -1.582,-0.75 -2.156,-1.328l1.368,-1.713c0.506,0.459 1.066,0.819 1.675,1.075c0.625,0.238 1.31,0.356 2.053,0.356c0.813,0 1.428,-0.128 1.85,-0.384c0.422,-0.272 0.635,-0.656 0.635,-1.15Zm-85.394,21.316l-0,-10.479l2.741,0l-0,10.454c-0,1.484 0.346,2.606 1.037,3.375c0.713,0.75 1.741,1.125 3.094,1.125c1.387,-0 2.425,-0.375 3.119,-1.125c0.693,-0.769 1.04,-1.891 1.04,-3.375l0,-10.454l2.738,0l-0,10.479c-0,1.484 -0.272,2.743 -0.813,3.784c-0.54,1.022 -1.325,1.816 -2.356,2.378c-1.016,0.544 -2.256,0.816 -3.728,0.816c-1.438,-0 -2.669,-0.272 -3.7,-0.816c-1.016,-0.562 -1.8,-1.356 -2.359,-2.378c-0.541,-1.041 -0.813,-2.3 -0.813,-3.784Zm19.4,-3.597c0.334,-0.55 0.781,-1.003 1.341,-1.36c0.778,-0.496 1.681,-0.743 2.712,-0.743c1.388,-0 2.469,0.443 3.247,1.331c0.778,0.869 1.166,2.087 1.166,3.653l-0,7.284l-2.56,0l0,-6.925c0,-1.006 -0.228,-1.765 -0.687,-2.275c-0.438,-0.528 -1.082,-0.793 -1.925,-0.793c-0.644,-0 -1.21,0.162 -1.7,0.487c-0.472,0.306 -0.844,0.75 -1.116,1.328c-0.269,0.563 -0.406,1.244 -0.406,2.044l-0,6.134l-2.56,0l0,-11.884l2.385,0l0.103,1.719Zm11.431,10.165l2.561,0l0,-11.885l-2.561,-0l0,11.885Zm-0.1,-13.953l2.789,0l0,-2.658l-2.789,-0l0,2.658Zm10.772,11.097l3.475,-9.028l2.741,0l-5.072,11.884l-2.459,0l-5.072,-11.884l2.865,0l3.522,9.028Zm9.328,-2.306c0.05,0.584 0.197,1.103 0.438,1.559c0.318,0.582 0.775,1.022 1.368,1.332c0.591,0.306 1.291,0.459 2.104,0.459c0.675,-0 1.328,-0.119 1.953,-0.36c0.625,-0.237 1.2,-0.596 1.722,-1.071l1.268,1.609c-0.609,0.647 -1.359,1.141 -2.256,1.481c-0.878,0.341 -1.825,0.513 -2.841,0.513c-1.249,-0 -2.346,-0.256 -3.293,-0.766c-0.947,-0.528 -1.691,-1.262 -2.231,-2.2c-0.526,-0.953 -0.788,-2.062 -0.788,-3.322c-0,-1.228 0.253,-2.319 0.762,-3.272c0.507,-0.953 1.201,-1.703 2.079,-2.25c0.896,-0.543 1.918,-0.818 3.068,-0.818c1.166,-0 2.178,0.281 3.041,0.843c0.878,0.547 1.562,1.322 2.053,2.329c0.491,0.987 0.738,2.137 0.738,3.45l-0,0.484l-9.185,-0Zm0.01,-1.813l6.637,0c-0.053,-0.518 -0.178,-0.978 -0.378,-1.381c-0.256,-0.547 -0.628,-0.962 -1.116,-1.253c-0.475,-0.291 -1.05,-0.434 -1.725,-0.434c-0.693,-0 -1.303,0.153 -1.825,0.459c-0.525,0.306 -0.931,0.734 -1.218,1.278c-0.194,0.394 -0.319,0.838 -0.375,1.331Zm14.103,-2.965c0.337,-0.578 0.765,-1.047 1.281,-1.407c0.728,-0.493 1.547,-0.74 2.459,-0.74c0.457,-0 0.897,0.066 1.319,0.203l-0.481,2.353c-0.356,-0.122 -0.728,-0.181 -1.116,-0.181c-0.659,-0 -1.25,0.153 -1.775,0.462c-0.506,0.288 -0.912,0.697 -1.215,1.225c-0.288,0.529 -0.432,1.141 -0.432,1.841l0,6.184l-2.562,0l-0,-11.884l2.384,0l0.138,1.944Zm13.503,6.697c-0,-0.444 -0.194,-0.794 -0.584,-1.05c-0.372,-0.254 -1.032,-0.475 -1.976,-0.663l-0.837,-0.153c-1.219,-0.256 -2.131,-0.675 -2.737,-1.253c-0.594,-0.597 -0.888,-1.331 -0.888,-2.2c0,-1.125 0.437,-2.019 1.316,-2.681c0.897,-0.685 2.081,-1.025 3.55,-1.025c1.74,-0 3.196,0.503 4.362,1.509l-1.194,1.738c-0.472,-0.391 -0.987,-0.682 -1.543,-0.869c-0.544,-0.203 -1.125,-0.307 -1.75,-0.307c-0.744,0 -1.31,0.129 -1.7,0.385c-0.372,0.237 -0.557,0.587 -0.557,1.047c0,0.425 0.169,0.759 0.507,0.997c0.356,0.222 0.962,0.418 1.825,0.587l0.862,0.178c1.353,0.256 2.331,0.681 2.941,1.278c0.625,0.582 0.937,1.332 0.937,2.25c0,0.819 -0.209,1.516 -0.634,2.097c-0.403,0.563 -0.988,0.997 -1.747,1.303c-0.763,0.291 -1.656,0.435 -2.688,0.435c-1.05,-0 -2.012,-0.153 -2.89,-0.46c-0.863,-0.306 -1.581,-0.75 -2.156,-1.331l1.368,-1.712c0.507,0.462 1.066,0.818 1.675,1.075c0.625,0.237 1.31,0.356 2.053,0.356c0.81,-0 1.429,-0.125 1.85,-0.381c0.422,-0.272 0.635,-0.657 0.635,-1.15Zm5.097,3.243l2.56,0l0,-11.885l-2.56,-0l-0,11.885Zm-0.103,-13.953l2.789,0l-0,-2.658l-2.789,-0l-0,2.658Zm6.743,4.166l-2.078,-0l0,-2.097l2.078,0l0,-3.909l2.563,-0l-0,3.909l3.397,0l-0,2.097l-3.397,-0l-0,5.828c-0,0.75 0.134,1.294 0.406,1.634c0.269,0.341 0.691,0.513 1.266,0.513c0.337,-0 0.644,-0.059 0.912,-0.181c0.288,-0.135 0.585,-0.322 0.888,-0.56l1.09,1.635c-0.456,0.443 -0.953,0.765 -1.493,0.972c-0.525,0.203 -1.116,0.306 -1.775,0.306c-1.254,-0 -2.207,-0.36 -2.866,-1.075c-0.659,-0.731 -0.991,-1.797 -0.991,-3.194l0,-5.878Zm10.366,4.625c0.05,0.584 0.197,1.103 0.438,1.559c0.318,0.582 0.775,1.022 1.368,1.332c0.591,0.306 1.294,0.459 2.103,0.459c0.678,-0 1.328,-0.119 1.953,-0.359c0.625,-0.238 1.2,-0.597 1.725,-1.072l1.266,1.609c-0.606,0.647 -1.359,1.141 -2.256,1.481c-0.878,0.341 -1.825,0.513 -2.841,0.513c-1.25,-0 -2.347,-0.256 -3.294,-0.766c-0.946,-0.528 -1.69,-1.262 -2.231,-2.2c-0.525,-0.953 -0.787,-2.062 -0.787,-3.322c-0,-1.228 0.253,-2.319 0.762,-3.272c0.506,-0.953 1.2,-1.703 2.078,-2.25c0.897,-0.543 1.919,-0.818 3.069,-0.818c1.166,-0 2.178,0.281 3.041,0.843c0.881,0.547 1.565,1.322 2.053,2.329c0.49,0.987 0.737,2.137 0.737,3.45l0,0.484l-9.184,-0Zm0.013,-1.813l6.634,0c-0.053,-0.518 -0.178,-0.978 -0.378,-1.381c-0.253,-0.547 -0.625,-0.962 -1.116,-1.253c-0.475,-0.291 -1.05,-0.434 -1.725,-0.434c-0.694,-0 -1.3,0.153 -1.825,0.459c-0.525,0.306 -0.931,0.734 -1.219,1.278c-0.193,0.394 -0.318,0.838 -0.371,1.331Zm4.099,-10.812l3.019,-0l-2.84,3.987l-2.282,0l2.103,-3.987Z" style="fill:#282f63;"/><path d="M576.438,68.199c2.366,14.114 10.445,26.473 21.881,34.423c-3.647,1.032 -7.494,1.584 -11.47,1.584c-23.224,0 -42.08,-18.855 -42.08,-42.08l0,-60.403l28.969,-0c0.542,0.392 1.136,0.815 1.845,1.275c3.229,2.1 6.241,4.58 8.976,7.42c1.419,1.472 2.739,3.014 3.957,4.618l-4.955,0l-3.026,4.289l-7.015,-0l-3.026,-4.289l-6.576,0l-0,13.237l8.075,12.218l-1.029,7.547l8.56,-0l1.029,-7.547l-0,-2.526l-6.991,-10.578l21.856,-0c0.602,1.558 1.127,3.147 1.573,4.761l-3.845,5.817l0,2.526l1.029,7.547l4.616,-0l-0.108,5.113c-0.009,0.471 -0.009,0.871 -0.027,1.448l-3.484,0l-5.323,7.895c-1.628,-0.062 -3.556,-0.136 -3.556,-0.136c-0.697,-0.026 -1.598,-0.117 -2.725,-0.282l-5.042,-7.477l-2.511,0l-0.539,-0.573c0,0.191 0.001,0.382 0.003,0.573l-5.301,0l-5.032,32.758l8.35,0l2.942,-19.158Zm82.575,-33.653l11.891,-0c2.381,-0 4.391,0.325 6.029,0.977c1.637,0.651 2.968,1.488 3.991,2.512c1.024,1.023 1.768,2.186 2.233,3.489c0.466,1.302 0.698,2.624 0.698,3.963c0,2.382 -0.558,4.485 -1.675,6.309c-1.116,1.823 -2.847,3.182 -5.191,4.075l8.708,15.911l-6.029,-0l-7.983,-15.241l-7.481,0l0,15.241l-5.191,-0l-0,-37.236Zm12.337,17.473c2.345,0 4.103,-0.577 5.276,-1.73c1.172,-1.154 1.758,-2.699 1.758,-4.634c0,-2.047 -0.632,-3.638 -1.898,-4.773c-1.265,-1.135 -3.014,-1.703 -5.247,-1.703l-7.035,0l0,12.84l7.146,0Zm20.6,-17.473l23.447,-0l-0,4.745l-18.088,-0l0,10.83l13.622,0l-0,4.801l-13.622,0l0,12.059l19.428,-0l-0,4.801l-24.787,-0l0,-37.236Zm30.09,32.546l23.168,-27.801l-22.051,-0l-0,-4.745l28.583,-0l-0,4.745l-22.889,27.745l23.279,0l0,4.746l-30.09,-0l0,-4.69Zm48.122,-32.546l5.471,-0l14.571,37.236l-5.974,-0l-3.852,-10.384l-15.296,-0l-3.852,10.384l-5.638,-0l14.57,-37.236Zm8.598,22.33l-6.03,-16.357l-6.085,16.357l12.115,-0Zm9.267,-22.33l5.973,-0l11.333,30.592l11.332,-30.592l5.639,-0l-14.403,37.236l-5.471,-0l-14.403,-37.236Zm-319.039,69.66l0,-104.206l6.706,0l-0,104.206l-6.706,0Z" style="fill:#6c3ec6;"/><path d="M577.829,59.611l4.161,4.434c9.369,10.552 22.291,16.846 36.377,17.724c0.748,0.045 1.489,0.077 2.231,0.092c3.315,0.07 6.598,-0.167 9.808,-0.698c-7.001,10.049 -17.468,17.474 -29.633,20.572c-13.863,-9.033 -22.936,-24.677 -22.944,-42.124Zm61.045,-16.919c0.573,3.262 0.84,6.624 0.768,10.059c-0.194,9.179 -2.77,17.747 -7.126,25.128c-3.913,0.857 -7.907,1.24 -11.885,1.156c-12.556,-0.264 -24.987,-5.181 -34.419,-14.572l6.407,0.245c0.693,0.041 1.387,0.069 2.078,0.084c13.342,0.28 26.115,-4.392 36.177,-13.273c3.023,-2.67 5.697,-5.631 8,-8.827Zm-23.181,-34.644c10.954,6.973 19.081,17.952 22.363,30.829c-9.027,14.001 -24.774,23.163 -42.33,23.144l4.978,-4.772l0,-0.019l0.018,0.017c10.135,-9.82 15.861,-23.001 16.121,-37.115c0.075,-4.11 -0.316,-8.158 -1.15,-12.084Zm-26.621,-8.036c8.408,0.176 16.302,2.354 23.244,6.064c4.322,16.197 0.443,34.128 -11.527,47.119l0.138,-6.573l-0.017,-0.022l0.01,0c0.224,-14.11 -5.048,-27.478 -14.844,-37.643c-2.847,-2.957 -5.983,-5.538 -9.345,-7.724c3.965,-0.882 8.098,-1.311 12.341,-1.221Z" style="fill:#b4a0ff;"/></svg>