<?xml version="1.0" encoding="UTF-8" standalone="no"?><!DOCTYPE svg PUBLIC "-//W3C//DTD SVG 1.1//EN" "http://www.w3.org/Graphics/SVG/1.1/DTD/svg11.dtd"><svg height="50px" width="100%" viewBox="0 0 109 105" version="1.1" xmlns="http://www.w3.org/2000/svg" xmlns:xlink="http://www.w3.org/1999/xlink" xml:space="preserve" xmlns:serif="http://www.serif.com/" style="fill-rule:evenodd;clip-rule:evenodd;stroke-linejoin:round;stroke-miterlimit:2;"><path d="M57.142,101.735c-4.488,1.6 -9.32,2.471 -14.355,2.471c-23.615,0 -42.787,-19.172 -42.787,-42.787l-0,-61.419l85.575,0l-0,35.86l-24.489,-0l0,-1.268l5.02,-7.595l0,-13.46l-6.687,0l-3.078,4.363l-7.132,-0l-3.078,-4.363l-6.687,0l-3.075,4.363l-7.135,-0l-3.078,-4.363l-6.687,0l-0,13.46l8.212,12.425l-1.047,7.672l8.703,-0l1.047,-7.672l0,-2.569l-7.109,-10.756l27.025,-0l-1.615,2.443l-0.918,0l-0,1.39l-3.923,5.934c-1.9,0.06 -3.536,0.775 -4.906,2.146c-1.434,1.433 -2.151,3.156 -2.151,5.169l0,23.137l-8.462,-12.55l-8.491,-0l-5.115,33.309l8.49,0l3.357,-21.856l9.9,13.878l0.321,-0l0,15.319c0,2.012 0.717,3.736 2.151,5.169c1.433,1.433 3.156,2.15 5.169,2.15l7.035,0Zm14.74,-13.358l-12.992,-12.992l5.307,-5.307l7.685,7.686l15.371,-15.371l5.307,5.307l-20.678,20.677Z" style="fill:#6c3ec6;"/><path d="M50.107,101.735c-2.013,0 -3.736,-0.717 -5.169,-2.15c-1.434,-1.433 -2.151,-3.157 -2.151,-5.169l0,-51.237c0,-2.013 0.717,-3.736 2.151,-5.169c1.433,-1.433 3.156,-2.15 5.169,-2.15l3.66,-0l-0,-7.32l7.319,0l0,7.32l29.278,-0l0,-7.32l7.319,0l0,7.32l3.66,-0c2.013,-0 3.736,0.717 5.17,2.15c1.433,1.433 2.15,3.156 2.15,5.169l-0,51.237c-0,2.012 -0.717,3.736 -2.15,5.169c-1.434,1.433 -3.157,2.15 -5.17,2.15l-51.236,0Zm-0,-7.319l51.236,-0l0,-36.598l-51.236,0l-0,36.598Z" style="fill:#b4a0ff;"/></svg>