<?xml version="1.0" encoding="UTF-8" standalone="no"?><!DOCTYPE svg PUBLIC "-//W3C//DTD SVG 1.1//EN" "http://www.w3.org/Graphics/SVG/1.1/DTD/svg11.dtd"><svg width="100%" height="50px" viewBox="0 0 116 105" version="1.1" xmlns="http://www.w3.org/2000/svg" xmlns:xlink="http://www.w3.org/1999/xlink" xml:space="preserve" xmlns:serif="http://www.serif.com/" style="fill-rule:evenodd;clip-rule:evenodd;stroke-linejoin:round;stroke-miterlimit:2;"><path d="M57.142,101.735c-4.488,1.6 -9.32,2.471 -14.355,2.471c-23.615,0 -42.787,-19.172 -42.787,-42.787l-0,-61.419l85.575,0l-0,35.86l-24.489,-0l0,-1.268l5.02,-7.595l0,-13.46l-6.687,0l-3.078,4.363l-7.132,-0l-3.078,-4.363l-6.687,0l-3.075,4.363l-7.135,-0l-3.078,-4.363l-6.687,0l-0,13.46l8.212,12.425l-1.047,7.672l8.703,-0l1.047,-7.672l0,-2.569l-7.109,-10.756l27.025,-0l-1.615,2.443l-0.918,0l-0,1.39l-3.923,5.934c-1.9,0.06 -3.536,0.775 -4.906,2.146c-1.434,1.433 -2.151,3.156 -2.151,5.169l0,23.137l-8.462,-12.55l-8.491,-0l-5.115,33.309l8.49,0l3.357,-21.856l9.9,13.878l0.321,-0l0,15.319c0,2.012 0.717,3.736 2.151,5.169c1.433,1.433 3.156,2.15 5.169,2.15l7.035,0Zm25.903,0l-0,-11.254l20.22,-20.128c0.549,-0.549 1.158,-0.946 1.829,-1.19c0.671,-0.244 1.342,-0.366 2.013,-0.366c0.732,0 1.434,0.138 2.105,0.412c0.671,0.275 1.281,0.686 1.829,1.235l3.386,3.386c0.488,0.549 0.869,1.158 1.143,1.829c0.275,0.671 0.412,1.342 0.412,2.013c0,0.671 -0.122,1.357 -0.366,2.059c-0.244,0.701 -0.64,1.327 -1.189,1.875l-20.129,20.129l-11.253,0Z" style="fill:#6c3ec6;"/><path d="M50.107,101.735c-2.013,0 -3.736,-0.717 -5.169,-2.15c-1.434,-1.433 -2.151,-3.157 -2.151,-5.169l0,-51.237c0,-2.013 0.717,-3.736 2.151,-5.169c1.433,-1.433 3.156,-2.15 5.169,-2.15l3.66,-0l-0,-7.32l7.319,0l0,7.32l29.278,-0l0,-7.32l7.319,0l0,7.32l3.66,-0c2.013,-0 3.736,0.717 5.17,2.15c1.433,1.433 2.15,3.156 2.15,5.169l-0,18.299l-7.32,-0l0,-3.66l-51.236,0l-0,36.598l25.618,-0l0,7.319l-25.618,0Z" style="fill:#b4a0ff;fill-rule:nonzero;"/></svg>