<?xml version="1.0" encoding="UTF-8" standalone="no"?><!DOCTYPE svg PUBLIC "-//W3C//DTD SVG 1.1//EN" "http://www.w3.org/Graphics/SVG/1.1/DTD/svg11.dtd"><svg height="50px" width="100%" viewBox="0 0 115 105" version="1.1" xmlns="http://www.w3.org/2000/svg" xmlns:xlink="http://www.w3.org/1999/xlink" xml:space="preserve" xmlns:serif="http://www.serif.com/" style="fill-rule:evenodd;clip-rule:evenodd;stroke-linejoin:round;stroke-miterlimit:2;"><path d="M57.142,101.735c-4.488,1.6 -9.32,2.471 -14.355,2.471c-23.615,0 -42.787,-19.172 -42.787,-42.787l-0,-61.419l85.575,0l-0,37.028l-17.623,-0l-6.651,7.189l-2.753,0l-0.654,-4.795l8.212,-12.425l0,-13.46l-6.687,0l-3.078,4.363l-7.132,-0l-3.078,-4.363l-6.687,0l-3.075,4.363l-7.135,-0l-3.078,-4.363l-6.687,0l-0,13.46l8.212,12.425l-1.047,7.672l8.703,-0l1.047,-7.672l0,-2.569l-7.109,-10.756l27.025,-0l-7.109,10.756l-0,2.569l0.654,4.796c-1.92,0.031 -3.569,0.735 -4.946,2.111c-1.408,1.408 -2.112,3.101 -2.112,5.078l0,14.909l-8.462,-12.55l-8.491,-0l-5.115,33.309l8.49,0l3.357,-21.856l9.9,13.878l0.321,-0l0,15.448c0,1.977 0.704,3.67 2.112,5.078c1.408,1.408 3.101,2.112 5.078,2.112l7.165,0Z" style="fill:#6c3ec6;"/><path d="M49.977,101.735c-1.977,0 -3.67,-0.704 -5.078,-2.112c-1.408,-1.408 -2.112,-3.101 -2.112,-5.078l0,-43.138c0,-1.977 0.704,-3.67 2.112,-5.078c1.408,-1.408 3.101,-2.112 5.078,-2.112l11.324,0l6.651,-7.189l21.569,-0l6.65,7.189l11.324,0c1.977,0 3.67,0.704 5.078,2.112c1.408,1.408 2.112,3.101 2.112,5.078l-0,43.138c-0,1.977 -0.704,3.67 -2.112,5.078c-1.408,1.408 -3.101,2.112 -5.078,2.112l-57.518,0Zm28.759,-12.582c4.494,0 8.313,-1.573 11.459,-4.718c3.145,-3.146 4.718,-6.965 4.718,-11.459c-0,-4.493 -1.573,-8.313 -4.718,-11.458c-3.146,-3.146 -6.965,-4.719 -11.459,-4.719c-4.493,0 -8.313,1.573 -11.459,4.719c-3.145,3.145 -4.718,6.965 -4.718,11.458c0,4.494 1.573,8.313 4.718,11.459c3.146,3.145 6.966,4.718 11.459,4.718Z" style="fill:#b4a0ff;"/><path d="M78.736,81.963c-2.516,0 -4.643,-0.868 -6.381,-2.606c-1.737,-1.738 -2.606,-3.864 -2.606,-6.381c-0,-2.516 0.869,-4.643 2.606,-6.381c1.738,-1.737 3.865,-2.606 6.381,-2.606c2.517,-0 4.643,0.869 6.381,2.606c1.738,1.738 2.606,3.865 2.606,6.381c0,2.517 -0.868,4.643 -2.606,6.381c-1.738,1.738 -3.864,2.606 -6.381,2.606Z" style="fill:#6c3ec6;"/></svg>